<svg width="115" height="115" viewBox="0 0 115 115" fill="none" xmlns="http://www.w3.org/2000/svg">
<path d="M81.4583 100.625C86.7511 100.625 91.0417 96.3343 91.0417 91.0416C91.0417 85.7489 86.7511 81.4583 81.4583 81.4583C76.1656 81.4583 71.875 85.7489 71.875 91.0416C71.875 96.3343 76.1656 100.625 81.4583 100.625Z" stroke="white" stroke-width="7" stroke-linecap="round" stroke-linejoin="round"/>
<path d="M38.3333 100.625C43.6261 100.625 47.9167 96.3343 47.9167 91.0416C47.9167 85.7489 43.6261 81.4583 38.3333 81.4583C33.0406 81.4583 28.75 85.7489 28.75 91.0416C28.75 96.3343 33.0406 100.625 38.3333 100.625Z" stroke="white" stroke-width="7" stroke-linecap="round" stroke-linejoin="round"/>
<path d="M14.375 14.375H20.0847C22.3441 14.375 24.2966 15.9534 24.77 18.1627L37.5217 77.6707C37.9951 79.88 39.9475 81.4583 42.207 81.4583H81.4583" stroke="white" stroke-width="7" stroke-linecap="round" stroke-linejoin="round"/>
<path d="M28.75 28.75H94.2557C97.4443 28.75 99.7434 31.8061 98.8597 34.8697L90.5664 63.6197C89.9747 65.671 88.0974 67.0833 85.9625 67.0833H37.0433" stroke="white" stroke-width="7" stroke-linecap="round" stroke-linejoin="round"/>
</svg>
