<svg width="95" height="90" viewBox="0 0 95 90" fill="none" xmlns="http://www.w3.org/2000/svg">
<path d="M61.3965 27.6982L49.2628 1.39235C48.4065 -0.464117 45.768 -0.464115 44.9117 1.39235L32.778 27.6982C32.429 28.4548 31.7119 28.9758 30.8845 29.0739L2.11666 32.4847C0.0864451 32.7255 -0.728895 35.2348 0.772094 36.6229L22.0409 56.2917C22.6526 56.8574 22.9265 57.7003 22.7641 58.5176L17.1183 86.9315C16.7199 88.9367 18.8545 90.4876 20.6385 89.489L45.917 75.3391C46.6441 74.9321 47.5304 74.9321 48.2575 75.3391L73.536 89.489C75.32 90.4876 77.4546 88.9367 77.0561 86.9315L71.4103 58.5176C71.2479 57.7003 71.5218 56.8574 72.1336 56.2917L93.4024 36.6229C94.9034 35.2348 94.088 32.7255 92.0578 32.4847L63.29 29.0739C62.4625 28.9758 61.7455 28.4548 61.3965 27.6982Z" fill="#42FF22"/>
</svg>
